<svg xmlns="http://www.w3.org/2000/svg" width="587.61082" height="246.67414" viewBox="0 0 587.61082 246.67414"><defs><style>.cls-1{fill:#26347a;}.cls-2{fill:#ef463e;}.cls-3,.cls-4{fill:none;}.cls-3{stroke:#bcbec0;stroke-miterlimit:10;stroke-width:0.75px;stroke-dasharray:7;}</style></defs><title>CAPE-4CLogo-Hort</title><g id="Layer_2" data-name="Layer 2"><g id="Logos"><path class="cls-1" d="M191.78693,121.35479q.99789-.84292,1.935-1.69026c.45718-.41276.90086-.82593,1.33591-1.23931,8.894-8.45208,13.12341-16.98643,10.30691-23.03446-4.96908-10.67035-29.95762-9.5594-55.81356,2.48132C133.9,105.16057,121.519,114.78316,115.286,123.61022c-16.22914,4.82826-26.58355,10.81471-25.46766,15.63642a4.57345,4.57345,0,0,0,1.94463,2.58484c1.32334-3.75067,8.808-8.02571,20.079-11.88181a12.22048,12.22048,0,0,0-.51061,8.02545c3.11218,10.468,24.12239,19.51077,50.02624,20.91252,28.48047,1.54128,52.08394-6.7374,52.72-18.49081C214.48,132.9602,205.58453,125.91761,191.78693,121.35479ZM151.30342,99.71728c18.90248-8.8026,37.57242-8.75257,41.70033.1117,2.1241,4.56121-.03141,10.56674-5.18613,16.52223-.76165.87991-2.04664,2.21664-2.93569,3.08957a17.21193,17.21193,0,0,0-2.04959-.53064,117.691,117.691,0,0,0-19.17151-2.5854c-3.255-.17614-6.44049-.2166-9.54049-.14532-10.47278.24062-28.00015,4.59-28.3649,4.6748C129.67169,113.48551,139.0214,105.43686,151.30342,99.71728ZM125.771,133.5951c-.21162-3.35825,3.67786-7.08576,8.50124-9.63246,7.12324-3.7609,18.00322-5.838,30.06654-5.18521,1.728.09354,3.42314.24377,5.08383.43958a70.67558,70.67558,0,0,1,12.73086,2.65483,73.03379,73.03379,0,0,1-15.90134,9.946C148.80889,139.94079,126.15856,139.66589,125.771,133.5951Zm36.65433,20.54113c-11.689-.63256-21.99931-3.69293-28.70246-7.98309,9.76752-.7522,21.69968-3.99485,33.82266-9.64037a114.25915,114.25915,0,0,0,20.70529-12.33006c8.11348,3.69159,13.12674,8.85611,12.83137,14.31429C200.55382,148.261,183.24651,155.263,162.42534,154.13623Z"/><path class="cls-2" d="M87.88576,147.51864a3.76277,3.76277,0,1,1-.9071-5.24346A3.76271,3.76271,0,0,1,87.88576,147.51864Z"/><path class="cls-2" d="M255.99516,154.31686a34.25255,34.25255,0,0,1-13.42481-12.73437,37.12151,37.12151,0,0,1,0-36.81982,34.25018,34.25018,0,0,1,13.42481-12.7334,42.84347,42.84347,0,0,1,35.438-1.43164,32.54266,32.54266,0,0,1,12.19091,9.082L293.358,109.15622a22.07715,22.07715,0,0,0-17.37353-8.09473,23.06344,23.06344,0,0,0-11.45069,2.81348,19.99287,19.99287,0,0,0-7.84765,7.84766,24.70752,24.70752,0,0,0,0,22.90088,19.98656,19.98656,0,0,0,7.84765,7.84765,23.07433,23.07433,0,0,0,11.45069,2.81445,21.96575,21.96575,0,0,0,17.37353-8.19335l10.26611,9.47656a32.01366,32.01366,0,0,1-12.24023,9.17969,40.64107,40.64107,0,0,1-16.2876,3.1582A39.67812,39.67812,0,0,1,255.99516,154.31686Z"/><path class="cls-2" d="M356.63285,142.91647h-32.082l-6.12012,14.80664H302.04447L332.84281,88.624h15.79395l30.89746,69.09912H362.753Zm-5.03418-12.14257-10.957-26.45459-10.958,26.45459Z"/><path class="cls-2" d="M430.71586,91.68356a22.86287,22.86287,0,0,1,14.06641,22.0127,24.00171,24.00171,0,0,1-3.65235,13.27734,23.27575,23.27575,0,0,1-10.41406,8.687,38.92237,38.92237,0,0,1-15.94141,3.00977H400.85453v19.05273H384.8643V88.624h29.91015A38.40213,38.40213,0,0,1,430.71586,91.68356Zm-5.87305,30.84766q3.75-3.10841,3.75-8.835,0-5.82276-3.75-8.93359-3.75292-3.10841-10.957-3.10938H400.85453V125.6406h13.03125Q421.08989,125.6406,424.84281,122.53122Z"/><path class="cls-2" d="M507.76078,144.88913v12.834h-53.502V88.624h52.21875v12.832H470.15141v15.00489h32.082v12.438h-32.082v15.99023Z"/></g><g id="Guidelines"><rect class="cls-3" x="80.07248" y="87.27153" width="427.46587" height="72.13108"/><rect class="cls-4" width="587.61082" height="246.67414"/></g></g></svg>