<svg xmlns="http://www.w3.org/2000/svg" width="484.54321" height="424.40147" viewBox="0 0 484.54321 424.40147"><defs><style>.cls-1{fill:#26347a;}.cls-2{fill:#ef463e;}.cls-3{fill:none;}</style></defs><title>CAPE-4CLogo-Vert-CNCF</title><g id="Layer_2" data-name="Layer 2"><g id="Logos"><path class="cls-1" d="M359.61049,164.06708q2.637-2.22745,5.11323-4.46659c1.20814-1.09073,2.38057-2.18256,3.53021-3.27494,23.50278-22.335,34.67922-44.88741,27.2365-60.86961C382.35939,67.259,316.326,70.19478,248.0005,102.013c-41.359,19.26015-74.07618,44.68829-90.54738,68.01421-42.88625,12.7589-70.24826,28.57838-67.29946,41.32.58608,2.53217,2.34844,4.81072,5.13877,6.83055,3.497-9.91131,23.27566-21.20831,53.05971-31.39824-2.82879,7.70939-3.39729,14.90219-1.34931,21.20762,8.22407,27.66205,63.74454,51.55812,132.19666,55.26231,75.261,4.0729,137.63424-17.80388,139.315-48.86281C419.57792,194.73492,396.07129,176.12455,359.61049,164.06708ZM252.63092,106.889c49.95069-23.26129,99.28687-23.12909,110.19507.29516,5.613,12.05323-.083,27.9231-13.70459,43.66077-2.01269,2.3252-5.40834,5.85757-7.75771,8.16433a45.47667,45.47667,0,0,0-5.41612-1.40224,311.00169,311.00169,0,0,0-50.66162-6.832c-8.60156-.46546-17.01929-.57239-25.21118-.384-27.6748.63587-73.9917,12.1294-74.95557,12.3534C195.46808,143.27215,220.17511,122.00323,252.63092,106.889Zm-67.47057,89.52372c-.55921-8.87435,9.71893-18.72448,22.46492-25.45423,18.82349-9.93836,47.57434-15.4273,79.45224-13.70215,4.56642.24717,9.04579.64416,13.43424,1.16158a186.76552,186.76552,0,0,1,33.64191,7.01552,192.99567,192.99567,0,0,1-42.02,26.28267C246.039,213.18146,186.18447,212.455,185.16035,196.41269Zm96.86078,54.28088c-30.88865-1.67159-58.13421-9.75874-75.8476-21.0957,25.81112-1.9877,57.34243-10.55658,89.378-25.47511A301.9354,301.9354,0,0,0,350.26618,171.54c21.44024,9.75517,34.688,23.40267,33.90748,37.82616C382.77739,235.16809,337.042,253.67107,282.02113,250.69357Z"/><path class="cls-2" d="M85.04681,233.20627a9.9433,9.9433,0,1,1-2.397-13.85609A9.94311,9.94311,0,0,1,85.04681,233.20627Z"/><path class="cls-2" d="M173.09595,348.42213a32.98321,32.98321,0,0,1-12.92969-12.26367,35.75816,35.75816,0,0,1,0-35.46,32.99687,32.99687,0,0,1,12.92969-12.26367,38.4191,38.4191,0,0,1,18.49121-4.4209,38.80708,38.80708,0,0,1,15.63867,3.042,31.3421,31.3421,0,0,1,11.74023,8.74609l-9.88672,9.127a21.26266,21.26266,0,0,0-16.73242-7.7959,22.21108,22.21108,0,0,0-11.02734,2.71,19.25882,19.25882,0,0,0-7.55859,7.55762,23.80069,23.80069,0,0,0,0,22.05566,19.259,19.259,0,0,0,7.55859,7.55762,22.21108,22.21108,0,0,0,11.02734,2.71,21.15349,21.15349,0,0,0,16.73242-7.89063l9.88672,9.126A30.81135,30.81135,0,0,1,207.178,349.801a39.148,39.148,0,0,1-15.68653,3.042A38.2178,38.2178,0,0,1,173.09595,348.42213Z"/><path class="cls-2" d="M270.01684,337.44264H239.12036l-5.89453,14.25976H217.44458l29.66113-66.54785h15.21094l29.75586,66.54785H275.91138Zm-4.84863-11.69336-10.55176-25.47852-10.55273,25.47852Z"/><path class="cls-2" d="M341.36548,288.10182a22.81385,22.81385,0,0,1,10.02929,8.36621,25.08585,25.08585,0,0,1,0,25.62109,22.39764,22.39764,0,0,1-10.02929,8.36524,37.47074,37.47074,0,0,1-15.35352,2.90039h-13.4043V351.7024H297.2063V285.15455H326.012A36.983,36.983,0,0,1,341.36548,288.10182Zm-5.65625,29.709q3.61083-2.9956,3.6123-8.50879,0-5.60887-3.6123-8.60351-3.61524-2.99415-10.55274-2.99512H312.60766v23.10156h12.54883Q332.094,320.80494,335.70923,317.8108Z"/><path class="cls-2" d="M415.56567,339.344V351.7024H364.03833V285.15455h50.291v12.35938H379.344v14.45019h30.89746v11.97852H379.344V339.344Z"/></g><g id="Guidelines"><rect class="cls-3" width="484.54321" height="424.40147"/></g></g></svg>