<svg xmlns="http://www.w3.org/2000/svg" viewBox="0 0 351.57 276.75"><defs><style>.cls-1{fill:#26347a;}.cls-2{fill:#ef463e;}</style></defs><title>CAPE-4CLogo-Vert-CNCF</title><g id="Layer_2" data-name="Layer 2"><g id="Logos"><path class="cls-1" d="M292.63,88q2.64-2.24,5.12-4.47c1.21-1.09,2.38-2.18,3.53-3.27C324.78,57.9,336,35.35,328.51,19.37,315.38-8.83,249.35-5.89,181,25.92c-41.35,19.26-74.07,44.69-90.54,68-42.89,12.76-70.25,28.58-67.3,41.32.58,2.53,2.35,4.81,5.14,6.83,3.49-9.91,23.27-21.21,53.06-31.4C78.55,118.4,78,125.59,80,131.9c8.22,27.66,63.74,51.56,132.19,55.26,75.26,4.07,137.64-17.8,139.32-48.86C352.6,118.65,329.1,100,292.63,88Zm-107-57.18c50-23.26,99.29-23.13,110.2.3,5.61,12-.08,27.92-13.7,43.66-2,2.32-5.41,5.85-7.76,8.16a45.5,45.5,0,0,0-5.42-1.4,310.13,310.13,0,0,0-50.66-6.83c-8.6-.47-17-.58-25.21-.39-27.68.64-74,12.13-75,12.36C128.49,67.18,153.2,45.92,185.65,30.8Zm-67.47,89.52c-.55-8.87,9.72-18.72,22.47-25.45,18.82-9.94,47.57-15.43,79.45-13.7q6.85.38,13.44,1.16a186.85,186.85,0,0,1,33.64,7,193.45,193.45,0,0,1-42,26.28C179.06,137.09,119.21,136.37,118.18,120.32ZM215,174.61c-30.88-1.68-58.13-9.76-75.84-21.1,25.81-2,57.34-10.56,89.38-25.48a301.33,301.33,0,0,0,54.71-32.58c21.44,9.76,34.69,23.4,33.91,37.83C315.8,159.08,270.07,177.58,215,174.61Z"/><path class="cls-2" d="M18.07,157.12a9.94,9.94,0,1,1-2.4-13.86A9.95,9.95,0,0,1,18.07,157.12Z"/><path class="cls-2" d="M106.12,272.33a33,33,0,0,1-12.93-12.26,35.79,35.79,0,0,1,0-35.46,33,33,0,0,1,12.93-12.26A41.27,41.27,0,0,1,140.25,211,31.35,31.35,0,0,1,152,219.71l-9.89,9.13a21.24,21.24,0,0,0-16.73-7.8,22.31,22.31,0,0,0-11,2.71,19.35,19.35,0,0,0-7.56,7.56,23.88,23.88,0,0,0,0,22.06,19.35,19.35,0,0,0,7.56,7.56,22.31,22.31,0,0,0,11,2.71,21.15,21.15,0,0,0,16.73-7.89l9.89,9.12a30.71,30.71,0,0,1-11.79,8.84,39.09,39.09,0,0,1-15.68,3A38.18,38.18,0,0,1,106.12,272.33Z"/><path class="cls-2" d="M203,261.35h-30.9l-5.89,14.26H150.47l29.66-66.54h15.21l29.76,66.54H208.94Zm-4.85-11.69-10.55-25.48-10.55,25.48Z"/><path class="cls-2" d="M274.39,212a22,22,0,0,1,13.55,21.2A23.15,23.15,0,0,1,284.42,246a22.45,22.45,0,0,1-10,8.37,37.54,37.54,0,0,1-15.35,2.9H245.63v18.34h-15.4V209.07H259A37,37,0,0,1,274.39,212Zm-5.66,29.71q3.61-3,3.62-8.51t-3.62-8.6q-3.62-3-10.55-3H245.63v23.1h12.55Q265.13,244.72,268.73,241.72Z"/><path class="cls-2" d="M348.59,263.26v12.35H297.06V209.07h50.29v12.36h-35v14.45h30.9v12h-30.9v15.41Z"/></g></g></svg>