<svg xmlns="http://www.w3.org/2000/svg" viewBox="0 0 484.54 424.4"><defs><style>.cls-1{fill:#26347a;}.cls-2{fill:#ef463e;}.cls-3{fill:none;}</style></defs><title>CAPE-4CLogo-Vert</title><g id="Layer_2" data-name="Layer 2"><g id="Logos"><path class="cls-1" d="M359.61,164.07q2.64-2.23,5.11-4.47c1.21-1.09,2.38-2.18,3.53-3.27,23.51-22.34,34.68-44.89,27.24-60.87C382.36,67.26,316.33,70.19,248,102c-41.36,19.26-74.08,44.69-90.55,68-42.88,12.76-70.25,28.58-67.3,41.32.59,2.53,2.35,4.81,5.14,6.83,3.5-9.91,23.28-21.21,53.06-31.4-2.83,7.71-3.4,14.9-1.35,21.21,8.23,27.66,63.75,51.56,132.2,55.26,75.26,4.07,137.63-17.8,139.31-48.86C419.58,194.73,396.07,176.12,359.61,164.07Zm-107-57.18c49.95-23.26,99.29-23.13,110.2.29,5.61,12.06-.09,27.93-13.71,43.66-2,2.33-5.41,5.86-7.76,8.17a44.87,44.87,0,0,0-5.41-1.4,311.34,311.34,0,0,0-50.66-6.84c-8.61-.46-17-.57-25.22-.38-27.67.64-74,12.13-74.95,12.35C195.47,143.27,220.18,122,252.63,106.89Zm-67.47,89.52c-.56-8.87,9.72-18.72,22.47-25.45,18.82-9.94,47.57-15.43,79.45-13.7,4.56.24,9,.64,13.43,1.16a186.68,186.68,0,0,1,33.64,7,193.09,193.09,0,0,1-42,26.29C246,213.18,186.18,212.46,185.16,196.41ZM282,250.69c-30.89-1.67-58.13-9.76-75.85-21.09,25.81-2,57.35-10.56,89.38-25.48a301.43,301.43,0,0,0,54.72-32.58c21.44,9.76,34.68,23.4,33.9,37.83C382.78,235.17,337,253.67,282,250.69Z"/><path class="cls-2" d="M85.05,233.21a9.95,9.95,0,1,1-2.4-13.86A9.95,9.95,0,0,1,85.05,233.21Z"/><path class="cls-2" d="M173.1,348.42a32.83,32.83,0,0,1-12.93-12.26,35.73,35.73,0,0,1,0-35.46,32.92,32.92,0,0,1,12.93-12.27,41.22,41.22,0,0,1,34.13-1.37A31.43,31.43,0,0,1,219,295.8l-9.89,9.13a21.26,21.26,0,0,0-16.73-7.8,22.29,22.29,0,0,0-11,2.71,19.35,19.35,0,0,0-7.56,7.56,23.8,23.8,0,0,0,0,22.06,19.26,19.26,0,0,0,7.56,7.55,22.18,22.18,0,0,0,11,2.71,21.16,21.16,0,0,0,16.73-7.89L219,341a30.81,30.81,0,0,1-11.79,8.84,39.1,39.1,0,0,1-15.69,3A38.17,38.17,0,0,1,173.1,348.42Z"/><path class="cls-2" d="M270,337.44h-30.9l-5.89,14.26H217.44l29.67-66.55h15.21l29.75,66.55H275.91Zm-4.85-11.69-10.55-25.48-10.56,25.48Z"/><path class="cls-2" d="M341.37,288.1a22,22,0,0,1,13.54,21.2,23.09,23.09,0,0,1-3.52,12.79,22.35,22.35,0,0,1-10,8.36,37.42,37.42,0,0,1-15.36,2.9h-13.4V351.7h-15.4V285.15H326A37.08,37.08,0,0,1,341.37,288.1Zm-5.66,29.71q3.62-3,3.61-8.51t-3.61-8.6q-3.61-3-10.55-3H312.61v23.1h12.55Q332.09,320.8,335.71,317.81Z"/><path class="cls-2" d="M415.57,339.34V351.7H364V285.15h50.29v12.36h-35V312h30.9v12h-30.9v15.4Z"/></g><g id="Guidelines"><rect class="cls-3" width="484.54" height="424.4"/></g></g></svg>